<?xml version="1.0" standalone="no"?>
<!DOCTYPE svg PUBLIC "-//W3C//DTD SVG 20010904//EN"
 "http://www.w3.org/TR/2001/REC-SVG-20010904/DTD/svg10.dtd">
<svg version="1.0" xmlns="http://www.w3.org/2000/svg"
 width="2000.000000pt" height="2000.000000pt" viewBox="0 0 2000.000000 2000.000000"
 preserveAspectRatio="xMidYMid meet">

<g transform="translate(0.000000,2000.000000) scale(0.100000,-0.100000)"
fill="#000000" stroke="none">
<path d="M4685 16690 c-302 -30 -607 -168 -835 -376 -218 -201 -362 -438 -436
-719 -9 -33 -18 -73 -21 -90 -2 -16 -8 -57 -14 -90 -5 -36 -9 -1323 -9 -3246
l0 -3186 -92 -115 c-51 -63 -124 -152 -161 -199 -38 -46 -74 -91 -80 -99 -85
-107 -161 -189 -170 -183 -6 3 -7 1 -3 -6 6 -9 -137 -183 -232 -281 -37 -38
-141 -198 -148 -228 -4 -15 -10 -31 -14 -37 -12 -17 -48 -136 -62 -205 -10
-52 -12 -452 -10 -2034 3 -2124 1 -2036 53 -2170 69 -174 233 -325 428 -394
l76 -27 1370 0 1370 0 73 28 c111 43 190 93 268 171 81 81 134 166 171 275 24
69 27 93 31 269 l4 192 2014 0 c1108 0 2014 -4 2014 -8 0 -5 -62 -14 -137 -21
-181 -17 -568 -65 -768 -97 -564 -89 -950 -205 -1027 -309 l-17 -23 152 -6
c421 -19 725 -27 1283 -33 l612 -6 16 -34 c43 -89 149 -203 251 -268 64 -41
165 -82 239 -96 30 -5 921 -9 2291 -9 2181 0 2244 1 2317 19 178 46 325 153
428 312 71 110 83 157 131 489 21 151 84 533 153 930 19 107 62 366 96 575 33
209 65 403 71 430 11 58 119 711 119 719 0 3 17 6 38 6 24 0 63 12 102 33 50
25 72 44 104 91 l41 59 0 326 c0 319 -1 327 -22 368 -26 47 -27 42 35 173 22
47 54 119 72 160 18 41 46 104 62 140 17 36 50 110 75 165 25 55 58 129 75
165 17 36 66 146 110 245 44 99 96 214 115 255 19 41 43 95 53 120 10 25 50
114 89 198 39 84 71 155 71 158 0 3 52 118 115 255 63 137 115 251 115 254 0
2 18 43 41 92 33 71 40 96 36 127 -9 63 -23 71 -322 204 -99 44 -218 98 -265
120 -47 22 -107 49 -135 60 -27 11 -80 34 -118 51 -58 26 -66 33 -58 48 24 44
84 183 103 238 25 74 19 153 -16 223 -43 84 -91 117 -304 211 -48 21 -116 52
-152 69 -36 17 -123 56 -195 87 -71 32 -209 93 -305 137 -96 44 -317 143 -490
220 -173 77 -358 160 -410 184 l-95 45 0 1802 0 1802 -23 105 c-61 285 -170
505 -347 703 -217 244 -505 406 -840 474 -86 17 -284 18 -4580 19 -2469 1
-4526 -2 -4570 -6z m9082 -255 c181 -29 332 -89 488 -193 220 -146 396 -375
479 -624 62 -183 59 -136 63 -1075 l4 -863 -5590 0 -5591 0 -2 378 c-1 207 -2
586 -2 842 0 445 1 469 23 570 30 139 88 286 159 400 68 110 208 262 313 340
145 108 342 193 509 220 41 6 82 13 90 15 8 1 2029 3 4490 4 3917 1 4486 -1
4567 -14z m1033 -3765 c0 -423 -2 -770 -5 -770 -2 0 -66 27 -140 61 -88 39
-154 62 -188 66 -79 8 -154 -17 -215 -72 -42 -38 -59 -65 -113 -185 -47 -103
-68 -139 -79 -136 -8 2 -206 90 -439 196 -373 169 -428 191 -459 185 -60 -11
-34 39 -402 -780 -131 -291 -472 -1049 -491 -1088 -12 -27 -14 -24 -69 115
-415 1054 -1360 1816 -2476 1997 -355 58 -778 52 -1119 -15 -682 -134 -1281
-465 -1753 -970 -314 -336 -543 -721 -694 -1164 -54 -160 -128 -463 -128 -526
0 -7 11 -16 25 -20 33 -8 32 -21 -4 -29 -30 -6 -41 -32 -41 -100 0 -17 -3 -35
-6 -38 -4 -4 -28 8 -53 27 -25 18 -51 36 -58 40 -8 4 -20 -22 -38 -81 -30 -98
-31 -97 -65 24 l-23 83 -86 25 c-47 14 -93 29 -101 32 -9 3 14 15 55 28 l70
21 3 200 c2 184 1 201 -18 232 -13 21 -31 35 -50 38 l-29 6 -3 412 c-3 409 -3
411 -27 464 -14 31 -43 69 -69 93 -79 69 -89 70 -608 67 -452 -3 -460 -3 -500
-25 -53 -28 -99 -74 -127 -127 -21 -40 -22 -52 -27 -461 l-5 -420 -22 -3 c-12
-2 -34 -17 -48 -33 l-25 -31 0 -229 0 -229 -27 -6 c-183 -41 -373 -141 -472
-248 -14 -14 -28 -26 -33 -26 -4 0 -8 938 -8 2085 l0 2085 5595 0 5595 0 0
-770z m-5225 -635 c555 -72 1048 -279 1485 -625 58 -45 175 -153 260 -239 357
-359 609 -786 747 -1268 l35 -124 -30 -67 c-16 -37 -80 -179 -142 -317 -62
-137 -113 -251 -114 -252 -1 -1 -351 -52 -391 -56 -19 -2 -20 6 -27 128 -14
291 -84 555 -218 830 -368 757 -1134 1235 -1979 1235 -485 0 -990 -177 -1363
-479 -75 -60 -78 -64 -101 -139 l-24 -77 -13 45 -12 45 -65 -70 c-171 -183
-284 -347 -388 -560 -142 -291 -209 -557 -222 -880 -18 -464 108 -909 372
-1310 58 -88 166 -220 180 -220 4 0 16 23 25 50 20 56 18 58 55 -66 l25 -86
98 -30 97 -30 -45 -13 c-25 -7 -49 -17 -53 -21 -12 -9 105 -105 224 -184 257
-171 527 -278 844 -337 100 -18 157 -22 345 -22 124 -1 257 3 296 7 l72 8 4
-103 c5 -117 21 -159 85 -219 49 -48 92 -69 153 -76 34 -4 51 -11 54 -22 13
-45 47 -283 43 -295 -5 -14 -145 -43 -322 -68 -122 -17 -590 -17 -715 0 -164
23 -343 61 -482 101 -722 212 -1353 707 -1730 1356 -208 359 -327 711 -384
1135 -21 153 -24 539 -5 685 83 671 335 1217 792 1717 43 47 79 89 79 91 0 3
-15 9 -32 13 -32 7 -31 8 39 30 58 17 85 34 145 85 80 71 173 141 299 227 l83
57 40 133 c21 73 41 130 43 128 3 -3 16 -42 29 -87 13 -45 26 -84 29 -87 3 -3
62 22 132 55 333 159 660 248 1033 282 140 13 466 6 615 -14z m5132 -331 c142
-64 278 -125 303 -136 25 -11 92 -42 150 -68 58 -26 332 -150 610 -275 278
-125 593 -267 700 -315 107 -49 220 -99 250 -112 105 -47 111 -71 49 -204 -23
-49 -52 -113 -65 -143 l-24 -55 -38 36 c-20 19 -58 49 -83 66 -68 46 -1153
532 -1157 519 -4 -17 46 -180 57 -187 6 -3 100 -32 210 -65 110 -32 198 -62
196 -66 -3 -4 -34 -15 -70 -24 -36 -10 -65 -21 -65 -24 0 -3 109 -55 243 -115
485 -218 529 -243 573 -327 15 -30 15 -31 -41 -99 -207 -257 -543 -419 -1025
-495 -109 -17 -567 -33 -614 -21 -44 11 -273 281 -407 479 -244 363 -358 739
-319 1053 6 56 16 107 21 115 6 11 33 14 111 14 l103 0 160 -72 c88 -39 270
-121 405 -182 135 -61 250 -109 256 -107 10 4 70 194 63 199 -18 14 -767 344
-812 358 -32 10 -91 22 -131 26 l-74 8 64 145 c61 137 97 190 129 190 7 0 130
-52 272 -116z m-1101 -100 c203 -91 371 -167 373 -170 4 -3 -297 -677 -663
-1484 -134 -297 -140 -321 -90 -370 l30 -30 677 -82 c373 -45 676 -85 675 -89
-21 -54 -644 -1429 -648 -1429 -3 0 -36 215 -74 478 -37 262 -75 489 -82 504
-19 37 -48 51 -103 49 -25 -1 -193 -23 -373 -50 l-327 -48 -6 46 c-24 186 -52
251 -132 301 -75 48 -102 47 -460 -4 -179 -26 -327 -45 -329 -44 -3 4 1157
2588 1162 2588 1 0 168 -75 370 -166z m-4241 -575 c606 -52 1151 -376 1477
-879 197 -303 310 -660 312 -990 l1 -114 -229 -33 c-256 -37 -292 -50 -346
-125 -49 -67 -55 -106 -38 -240 7 -65 11 -118 6 -118 -46 0 -708 -104 -728
-115 -59 -31 -59 -41 -1 -449 29 -204 55 -383 58 -397 5 -25 3 -26 -62 -32
-119 -11 -220 -88 -250 -191 -8 -27 -15 -80 -15 -117 0 -78 11 -72 -155 -90
-153 -16 -377 -6 -545 25 -524 98 -982 404 -1280 856 -304 462 -394 1053 -243
1590 201 718 807 1268 1538 1396 183 32 323 39 500 23z m-4653 -435 l3 -316
33 -29 c18 -16 44 -29 58 -29 33 0 81 25 94 49 6 12 10 136 10 330 0 306 0
311 20 311 20 0 20 -5 20 -311 -1 -337 0 -346 55 -371 34 -16 91 -2 115 29 19
25 20 39 20 339 0 307 0 314 20 314 20 0 20 -7 20 -314 0 -312 0 -315 23 -341
15 -18 36 -28 64 -32 37 -5 45 -2 73 25 l30 30 0 301 c0 178 4 302 9 306 26
16 31 -46 31 -419 l0 -386 -480 0 -480 0 0 394 c0 338 2 395 15 406 13 11 15
-22 15 -284 0 -322 3 -340 55 -364 51 -23 107 -7 131 39 11 23 14 89 14 334 0
261 2 305 15 305 12 0 15 -47 17 -316z m9238 106 c57 -303 253 -678 528 -1012
35 -43 60 -78 55 -78 -30 0 -1065 129 -1069 133 -3 2 69 168 159 368 91 200
195 433 232 517 38 84 72 149 75 145 4 -5 13 -37 20 -73z m3215 -698 c193 -87
360 -162 372 -167 21 -10 9 -38 -388 -920 -226 -500 -447 -991 -491 -1090 -44
-99 -91 -204 -104 -232 l-24 -53 -85 0 c-52 0 -85 4 -85 10 0 6 9 28 20 50 24
47 26 107 4 139 -9 13 -44 35 -78 51 -1142 516 -1469 660 -1500 660 -60 0 -86
-35 -180 -248 -47 -106 -86 -204 -86 -219 0 -14 10 -42 21 -64 l22 -38 -76
-168 -77 -168 -205 -3 c-113 -1 -205 1 -205 4 0 4 166 377 369 828 429 952
421 936 426 936 3 0 324 -284 893 -789 84 -75 164 -142 178 -149 35 -18 85 -8
115 23 13 13 200 415 414 894 215 479 392 870 395 871 3 0 163 -71 355 -158z
m-11655 -282 l0 -160 -580 0 -580 0 0 160 0 160 580 0 580 0 0 -160z m10848
-38 c-35 -87 -465 -1032 -469 -1032 -3 0 -57 46 -120 101 -63 56 -244 217
-403 358 -203 179 -284 257 -270 258 10 1 88 7 173 13 210 14 349 35 526 80
200 50 406 133 520 209 32 21 49 26 43 13z m-10715 -337 c90 -19 180 -68 247
-135 65 -64 102 -126 130 -217 20 -64 20 -92 20 -2712 0 -2534 -1 -2649 -18
-2712 -50 -178 -202 -321 -380 -358 -75 -16 -2570 -15 -2644 0 -178 37 -331
181 -379 357 -18 64 -19 148 -19 2020 0 1741 2 1961 16 2030 30 148 89 256
219 402 138 154 238 272 444 525 465 570 515 626 611 690 80 53 169 91 255
110 92 20 1403 20 1498 0z m7105 -294 c7 -4 20 -48 27 -97 22 -134 28 -124
-65 -124 -72 0 -403 -45 -1504 -205 -243 -35 -321 -50 -364 -70 -30 -14 -58
-25 -62 -25 -4 0 -13 37 -19 83 -7 45 -14 93 -16 107 -3 14 -1 31 4 39 7 11
271 53 988 157 1134 164 995 146 1011 135z m876 -313 c3 -7 41 -272 86 -588
45 -316 84 -583 86 -593 5 -16 -12 -17 -297 -15 l-303 3 -80 557 c-44 306 -77
560 -73 564 8 8 491 82 545 83 18 1 34 -5 36 -11z m-837 -139 c12 -4 23 -16
23 -24 0 -26 -31 -166 -47 -215 -84 -249 -331 -528 -658 -741 -103 -68 -129
-79 -180 -79 -158 0 -580 181 -763 327 -119 95 -262 253 -262 289 0 8 -4 14
-9 14 -4 0 -20 26 -34 57 l-26 58 22 24 c51 55 34 52 1122 206 171 25 342 49
380 55 319 50 368 53 432 29z m-2148 -651 c29 -205 55 -381 57 -390 5 -17 -8
-18 -179 -18 l-185 0 -10 -27 -10 -28 -11 28 c-10 27 -11 27 -105 27 -108 0
-97 -11 -116 118 -7 47 -17 82 -24 82 -8 0 -8 2 0 8 8 5 2 70 -22 232 -18 124
-34 232 -34 240 0 12 56 23 283 56 155 23 287 42 293 43 7 1 30 -139 63 -371z
m4362 196 c68 -31 167 -76 219 -99 52 -23 255 -114 450 -202 195 -88 383 -173
418 -188 34 -15 62 -32 62 -37 0 -5 -7 -24 -14 -43 l-15 -35 -114 0 -114 0
-474 213 c-261 117 -509 228 -551 247 -43 19 -78 38 -78 41 0 16 70 159 78
159 5 0 64 -25 133 -56z m-2071 -258 c27 -188 40 -252 40 -203 0 50 21 -2 65
-155 26 -95 52 -181 57 -190 8 -17 100 -18 1715 -18 1574 0 1708 -1 1725 -17
17 -15 18 -37 18 -277 0 -144 -4 -266 -8 -272 -4 -6 -17 -16 -29 -23 -30 -16
-6655 -16 -6702 0 -19 7 -33 19 -36 32 -2 12 -7 133 -10 269 -7 241 -6 247 14
267 25 25 12 25 1916 21 935 -1 1143 1 1157 12 14 11 68 167 68 197 0 7 -83
12 -270 13 l-269 3 79 64 c146 117 308 299 401 450 18 30 34 50 36 45 1 -5 16
-103 33 -218z m-6461 -492 c238 -379 543 -701 901 -951 441 -308 958 -501
1500 -559 120 -13 212 -15 410 -11 251 5 392 20 583 60 50 11 70 12 73 3 2 -6
40 -231 84 -501 45 -269 108 -653 140 -853 33 -200 60 -372 60 -383 0 -19 -25
-19 -1990 -19 l-1990 0 0 1822 0 1823 83 -165 c45 -91 111 -211 146 -266z
m4573 291 c33 -25 96 -67 139 -93 l79 -47 -167 -3 c-91 -1 -170 1 -174 5 -6 7
-39 224 -39 260 0 9 19 -2 51 -31 28 -25 78 -66 111 -91z m4033 -11 c154 -69
282 -128 284 -130 2 -2 -154 -4 -347 -4 l-351 0 36 78 c19 42 46 101 59 130
12 28 26 52 31 52 4 0 133 -57 288 -126z m1181 -1181 c-3 -10 -55 -319 -116
-688 -60 -368 -117 -708 -125 -755 -52 -292 -212 -1285 -219 -1363 -23 -224
-201 -404 -430 -436 -102 -14 -4307 -15 -4416 -1 -209 27 -392 201 -421 401
-9 67 -59 399 -65 434 -10 68 -76 454 -80 475 -8 40 -116 686 -219 1315 -53
319 -98 592 -101 608 l-6 27 3102 0 c2949 0 3101 -1 3096 -17z"/>
<path d="M12260 15869 c-30 -5 -99 -25 -153 -43 -344 -118 -593 -429 -638
-798 -26 -212 31 -453 148 -631 26 -40 56 -99 66 -132 38 -118 109 -199 224
-253 52 -24 69 -27 173 -28 63 0 150 -6 192 -13 107 -19 299 -9 403 19 638
173 916 923 545 1471 -21 30 -44 75 -50 100 -30 114 -131 228 -237 270 -47 18
-80 23 -178 24 -66 1 -147 7 -180 14 -70 13 -236 13 -315 0z m-162 -725 c-370
-553 -342 -524 -373 -390 -21 90 -22 241 -1 329 60 256 266 468 516 530 91 23
100 25 148 26 l42 1 -332 -496z m766 448 c71 -41 96 -135 54 -205 -74 -121
-740 -1106 -762 -1126 -39 -37 -129 -41 -175 -9 -48 33 -73 83 -68 135 3 31
22 70 73 145 419 634 690 1036 708 1050 47 39 112 43 170 10z m261 -515 c25
-114 17 -275 -18 -379 -70 -206 -220 -365 -419 -446 -62 -25 -243 -60 -254
-50 -3 3 143 228 323 500 368 554 336 521 368 375z"/>
<path d="M5350 15757 c-191 -55 -311 -221 -297 -411 10 -149 93 -273 225 -338
62 -31 73 -33 172 -33 97 0 110 2 172 32 85 40 151 106 191 191 30 62 32 75
32 172 0 99 -2 110 -33 172 -42 85 -129 168 -209 198 -71 27 -189 35 -253 17z
m198 -263 c89 -69 81 -195 -17 -261 -92 -62 -226 5 -238 118 -14 137 145 226
255 143z"/>
<path d="M6897 15750 c-105 -33 -197 -116 -245 -218 -23 -50 -27 -70 -27 -162
0 -97 2 -110 31 -170 41 -86 108 -153 192 -193 62 -30 75 -32 172 -32 99 0
110 2 172 33 246 121 306 438 119 635 -106 113 -267 154 -414 107z m189 -239
c61 -28 89 -73 89 -143 0 -63 -19 -97 -75 -135 -66 -46 -159 -24 -214 50 -31
42 -29 130 3 176 26 36 90 71 131 71 14 0 43 -9 66 -19z"/>
<path d="M8468 15751 c-31 -10 -72 -28 -91 -40 -54 -33 -126 -116 -155 -179
-24 -51 -27 -69 -27 -167 0 -105 1 -113 33 -174 42 -80 110 -147 187 -186 56
-27 68 -30 170 -30 105 0 114 2 177 33 84 41 167 128 199 209 19 46 23 78 24
154 0 90 -2 99 -37 171 -45 90 -103 148 -194 190 -85 40 -201 48 -286 19z
m192 -243 c89 -45 115 -165 53 -238 -34 -41 -73 -60 -124 -60 -113 0 -190 117
-145 223 37 87 129 118 216 75z"/>
<path d="M10030 15748 c-172 -60 -273 -203 -273 -383 1 -134 61 -250 170 -326
77 -54 147 -72 253 -67 112 5 195 43 267 121 119 131 143 291 69 452 -79 174
-303 267 -486 203z m196 -239 c81 -39 112 -130 72 -209 -30 -58 -77 -90 -135
-90 -93 0 -153 55 -161 145 -11 128 109 210 224 154z"/>
<path d="M5418 14636 c-129 -35 -211 -142 -211 -276 0 -88 31 -157 94 -214 87
-78 68 -76 724 -76 656 0 637 -2 724 76 65 58 94 127 93 217 -1 117 -62 210
-171 261 -45 21 -60 21 -626 23 -445 2 -591 -1 -627 -11z m1156 -236 c30 -11
35 -49 10 -74 -14 -14 -78 -16 -559 -16 -481 0 -545 2 -559 16 -20 19 -21 48
-3 63 9 7 128 12 373 14 197 1 439 3 536 5 97 1 188 -2 202 -8z"/>
<path d="M7183 14632 c-102 -36 -172 -115 -193 -219 -26 -124 37 -253 155
-316 39 -22 48 -22 639 -25 673 -3 656 -5 741 70 72 63 90 106 90 213 0 70 -4
99 -20 130 -26 54 -87 113 -144 139 -45 21 -56 21 -631 23 -542 3 -589 1 -637
-15z m1175 -238 c26 -18 28 -46 6 -68 -14 -14 -78 -16 -555 -16 -353 0 -547 4
-560 10 -28 16 -26 68 4 80 12 5 261 9 552 9 465 1 533 -1 553 -15z"/>
<path d="M8961 14631 c-65 -23 -96 -45 -138 -100 -110 -143 -63 -347 100 -433
l42 -23 615 0 615 0 45 23 c103 54 151 128 158 243 4 74 2 84 -27 144 -33 67
-79 112 -148 143 -34 15 -92 17 -623 19 -549 3 -588 2 -639 -16z m1177 -237
c26 -18 28 -46 6 -68 -14 -14 -79 -16 -564 -16 l-549 0 -15 22 c-20 29 -20 34
4 58 20 20 33 20 558 20 470 0 540 -2 560 -16z"/>
<path d="M14053 9115 c-50 -22 -75 -69 -70 -134 3 -47 9 -59 40 -87 48 -44 92
-52 151 -25 38 17 50 29 68 67 18 41 19 52 8 88 -27 91 -109 129 -197 91z"/>
<path d="M9728 9987 c-33 -15 -965 -856 -995 -899 -58 -79 0 -188 99 -188 42
0 65 16 180 121 51 47 264 240 473 428 209 189 388 357 398 375 21 37 21 56 3
101 -26 61 -97 89 -158 62z"/>
<path d="M9537 9102 c-16 -7 -791 -703 -948 -852 -64 -61 -69 -68 -69 -108 0
-58 21 -96 66 -117 45 -21 89 -14 136 23 20 15 245 217 501 449 500 454 501
455 477 527 -16 49 -51 78 -102 82 -24 2 -51 0 -61 -4z"/>
<path d="M3977 9036 c-32 -13 -74 -35 -93 -48 -42 -27 -865 -1050 -905 -1123
-104 -190 -27 -431 169 -527 62 -31 73 -33 172 -33 92 0 112 3 160 26 31 14
73 41 94 59 67 59 864 1064 894 1127 24 51 27 70 27 158 0 88 -3 107 -27 157
-37 80 -107 152 -186 190 -56 28 -78 33 -156 35 -79 3 -99 0 -149 -21z m222
-194 c57 -28 94 -83 99 -146 2 -30 -1 -69 -7 -86 -11 -33 -658 -850 -673 -850
-4 0 -8 133 -8 295 l0 294 183 230 c108 136 198 240 222 255 48 32 131 36 184
8z m-831 -1079 l-3 -258 -42 -3 c-73 -5 -156 54 -178 128 -19 60 4 143 52 195
10 11 49 59 86 108 38 48 72 87 78 87 6 0 8 -97 7 -257z"/>
<path d="M2903 6715 c-67 -29 -63 60 -63 -1345 0 -1409 -5 -1317 65 -1346 29
-12 246 -14 1423 -14 991 0 1398 3 1421 11 65 23 61 -61 61 1353 0 1014 -2
1290 -12 1306 -33 52 34 50 -1470 50 -1164 -1 -1398 -3 -1425 -15z m2707 -197
c0 -7 0 -110 1 -228 1 -118 2 -635 1 -1148 l-2 -932 -1282 2 -1283 3 -3 1158
-2 1157 1285 0 c1021 0 1285 -3 1285 -12z"/>
<path d="M13045 6390 c-112 -37 -203 -129 -238 -241 -16 -50 -17 -146 -15
-1229 l3 -1175 27 -57 c14 -31 48 -78 75 -103 116 -113 272 -141 418 -76 50
22 135 97 165 146 51 83 50 46 50 1281 0 1278 4 1207 -67 1312 -89 132 -267
192 -418 142z m185 -215 c38 -20 67 -56 79 -100 13 -48 15 -272 2 -279 -9 -6
-270 -46 -297 -46 -14 0 -15 22 -12 168 3 151 5 170 25 202 45 72 126 94 203
55z m80 -1235 c0 -346 -3 -630 -7 -630 -5 0 -66 -9 -138 -20 -71 -11 -138 -20
-147 -20 -17 0 -18 37 -18 630 0 347 3 630 8 630 4 1 61 9 127 19 66 11 132
20 148 20 l27 1 0 -630z"/>
<path d="M11864 6356 c-148 -37 -251 -158 -261 -306 -3 -39 14 -233 41 -485
86 -795 174 -1630 181 -1710 15 -191 84 -306 220 -364 159 -68 370 9 445 163
24 52 43 148 36 184 -3 15 -37 320 -76 677 -38 358 -92 861 -120 1119 -53 493
-56 511 -116 597 -69 100 -227 156 -350 125z m131 -218 c14 -6 25 -14 25 -18
0 -4 38 -272 85 -596 73 -507 173 -1349 163 -1360 -5 -5 -203 -34 -232 -34
-22 0 -24 5 -30 78 -4 42 -10 101 -13 131 -6 52 -5 53 15 42 66 -35 152 20
152 99 0 34 -6 48 -34 76 -38 38 -77 44 -126 19 l-29 -15 -6 43 c-10 71 -55
496 -55 517 0 16 7 20 36 20 28 0 44 8 70 34 46 46 48 101 5 148 -27 30 -35
33 -83 33 l-55 -1 -22 206 c-38 353 -38 350 -11 350 12 0 37 15 56 34 28 28
34 42 34 76 0 35 -6 48 -35 77 -33 33 -34 34 -12 43 31 12 72 12 102 -2z"/>
<path d="M14265 6356 c-126 -32 -224 -125 -254 -241 -5 -22 -24 -168 -41 -325
-44 -418 -169 -1566 -186 -1705 -37 -319 -30 -390 49 -487 177 -218 518 -157
601 108 8 27 38 267 66 534 28 267 82 780 120 1140 71 668 72 691 41 772 -57
149 -241 244 -396 204z m165 -241 c17 -16 33 -44 36 -63 6 -32 -80 -907 -93
-942 -10 -27 -148 940 -139 974 17 68 138 87 196 31z m-240 -1293 c29 -205 51
-374 49 -376 -7 -5 -190 -28 -194 -24 -3 2 14 180 37 396 23 215 45 388 48
384 4 -4 30 -175 60 -380z m88 -614 c-3 -22 -7 -23 -130 -26 -83 -2 -128 1
-128 8 0 5 8 10 18 10 9 1 55 7 102 14 129 21 142 20 138 -6z"/>
<path d="M10761 6349 c-142 -28 -245 -136 -273 -286 -10 -54 -2 -107 130 -863
77 -443 155 -888 171 -990 47 -280 78 -451 90 -497 24 -88 129 -192 226 -223
58 -19 163 -16 226 6 66 24 159 107 188 170 12 25 27 69 32 98 11 55 11 60
-55 426 -34 186 -148 842 -277 1580 -65 371 -76 408 -146 481 -47 49 -115 85
-187 98 -66 12 -64 12 -125 0z m123 -224 c46 -22 65 -62 86 -183 10 -59 44
-251 74 -427 30 -176 60 -342 65 -370 37 -186 194 -1115 190 -1120 -9 -8 -238
-39 -245 -32 -8 7 -12 33 -124 677 -50 289 -123 704 -161 922 -38 218 -69 410
-69 425 0 40 20 74 59 100 39 27 80 29 125 8z"/>
<path d="M15420 6347 c-104 -23 -200 -100 -242 -194 -11 -26 -48 -210 -89
-441 -38 -218 -78 -444 -89 -502 -18 -90 -159 -898 -222 -1265 -11 -66 -18
-138 -15 -160 34 -242 289 -380 504 -273 53 27 138 114 159 164 18 43 28 92
89 448 25 143 57 326 71 406 14 80 39 222 55 315 16 94 41 233 54 310 13 77
33 190 44 250 113 626 115 650 60 762 -67 139 -225 214 -379 180z m161 -244
c17 -17 32 -44 36 -65 3 -24 -18 -172 -62 -425 l-68 -388 -114 -255 c-63 -140
-118 -259 -123 -264 -6 -6 -29 0 -60 14 l-51 24 7 40 c53 332 225 1278 233
1295 36 67 147 80 202 24z m-385 -1619 c57 -26 89 -35 116 -32 47 4 46 13 9
-178 -16 -82 -32 -170 -36 -196 l-7 -48 -67 0 c-36 0 -90 3 -118 6 l-53 7 0
61 c0 55 42 355 56 398 7 24 9 23 100 -18z m40 -676 c-14 -85 -97 -133 -175
-102 -55 22 -95 84 -53 84 9 0 62 13 117 29 55 16 104 30 109 30 5 1 5 -18 2
-41z"/>
</g>
</svg>
